<svg width="466" height="469" viewBox="0 0 466 469" fill="none" xmlns="http://www.w3.org/2000/svg">
<rect x="16" y="19" width="450" height="450" fill="#1A202C"/>
<path d="M43.736 176.62H54.824C57.536 176.62 59.648 177.304 61.16 178.672C62.672 180.016 63.428 181.912 63.428 184.36C63.428 186.808 62.672 188.716 61.16 190.084C59.648 191.452 57.536 192.136 54.824 192.136H48.38V202H43.736V176.62ZM54.248 188.572C57.44 188.572 59.036 187.18 59.036 184.396C59.036 182.98 58.64 181.936 57.848 181.264C57.056 180.568 55.856 180.22 54.248 180.22H48.38V188.572H54.248ZM67.1056 176.62H71.6056V202H67.1056V176.62ZM83.8063 183.964C86.2783 183.964 88.1143 184.564 89.3143 185.764C90.5143 186.964 91.1143 188.812 91.1143 191.308V202H86.8303V199.3C86.4223 200.236 85.7743 200.968 84.8863 201.496C84.0223 202.024 83.0143 202.288 81.8623 202.288C80.6863 202.288 79.6183 202.048 78.6582 201.568C77.6983 201.088 76.9423 200.428 76.3903 199.588C75.8383 198.748 75.5623 197.812 75.5623 196.78C75.5623 195.484 75.8863 194.464 76.5343 193.72C77.2063 192.976 78.2863 192.436 79.7743 192.1C81.2623 191.764 83.3143 191.596 85.9303 191.596H86.8303V190.768C86.8303 189.568 86.5663 188.704 86.0383 188.176C85.5343 187.648 84.6823 187.384 83.4823 187.384C82.5463 187.384 81.5623 187.552 80.5303 187.888C79.5223 188.2 78.5263 188.644 77.5423 189.22L76.2822 186.124C77.2663 185.5 78.4543 184.984 79.8463 184.576C81.2383 184.168 82.5583 183.964 83.8063 183.964ZM82.7623 199.048C83.9623 199.048 84.9343 198.652 85.6783 197.86C86.4463 197.044 86.8303 196 86.8303 194.728V193.972H86.1823C84.5743 193.972 83.3263 194.044 82.4383 194.188C81.5503 194.332 80.9143 194.584 80.5303 194.944C80.1463 195.304 79.9543 195.796 79.9543 196.42C79.9543 197.188 80.2183 197.824 80.7463 198.328C81.2743 198.808 81.9463 199.048 82.7623 199.048ZM104.688 198.904C105.216 198.904 105.768 198.868 106.344 198.796L106.128 202.144C105.408 202.216 104.748 202.252 104.148 202.252C101.676 202.252 99.8517 201.688 98.6757 200.56C97.4997 199.408 96.9117 197.704 96.9117 195.448V187.78H93.5277V184.396H96.9117V179.14H101.412V184.396H106.056V187.78H101.412V195.376C101.412 197.728 102.504 198.904 104.688 198.904ZM116.537 183.964C119.009 183.964 120.845 184.564 122.045 185.764C123.245 186.964 123.845 188.812 123.845 191.308V202H119.561V199.3C119.153 200.236 118.505 200.968 117.617 201.496C116.753 202.024 115.745 202.288 114.593 202.288C113.417 202.288 112.349 202.048 111.389 201.568C110.429 201.088 109.673 200.428 109.121 199.588C108.569 198.748 108.293 197.812 108.293 196.78C108.293 195.484 108.617 194.464 109.265 193.72C109.937 192.976 111.017 192.436 112.505 192.1C113.993 191.764 116.045 191.596 118.661 191.596H119.561V190.768C119.561 189.568 119.297 188.704 118.769 188.176C118.265 187.648 117.413 187.384 116.213 187.384C115.277 187.384 114.293 187.552 113.261 187.888C112.253 188.2 111.257 188.644 110.273 189.22L109.013 186.124C109.997 185.5 111.185 184.984 112.577 184.576C113.969 184.168 115.289 183.964 116.537 183.964ZM115.493 199.048C116.693 199.048 117.665 198.652 118.409 197.86C119.177 197.044 119.561 196 119.561 194.728V193.972H118.913C117.305 193.972 116.057 194.044 115.169 194.188C114.281 194.332 113.645 194.584 113.261 194.944C112.877 195.304 112.685 195.796 112.685 196.42C112.685 197.188 112.949 197.824 113.477 198.328C114.005 198.808 114.677 199.048 115.493 199.048ZM134.142 184.396H138.786V187.78H134.142V202H129.642V187.78H126.258V184.396H129.642C129.642 181.876 130.29 179.98 131.586 178.708C132.906 177.436 134.946 176.728 137.706 176.584L139.47 176.476L139.758 179.824L138.066 179.896C136.65 179.968 135.642 180.292 135.042 180.868C134.442 181.42 134.142 182.32 134.142 183.568V184.396ZM149.173 202.288C147.373 202.288 145.789 201.916 144.421 201.172C143.077 200.428 142.033 199.36 141.289 197.968C140.545 196.576 140.173 194.956 140.173 193.108C140.173 191.26 140.545 189.652 141.289 188.284C142.033 186.892 143.077 185.824 144.421 185.08C145.789 184.336 147.373 183.964 149.173 183.964C150.973 183.964 152.545 184.336 153.889 185.08C155.257 185.824 156.301 186.892 157.021 188.284C157.765 189.652 158.137 191.26 158.137 193.108C158.137 194.956 157.765 196.576 157.021 197.968C156.301 199.36 155.257 200.428 153.889 201.172C152.545 201.916 150.973 202.288 149.173 202.288ZM149.137 198.796C150.601 198.796 151.717 198.316 152.485 197.356C153.253 196.396 153.637 194.98 153.637 193.108C153.637 191.26 153.253 189.856 152.485 188.896C151.717 187.912 150.613 187.42 149.173 187.42C147.733 187.42 146.617 187.912 145.825 188.896C145.057 189.856 144.673 191.26 144.673 193.108C144.673 194.98 145.057 196.396 145.825 197.356C146.593 198.316 147.697 198.796 149.137 198.796ZM173.444 187.708L170.816 187.96C167.84 188.272 166.352 189.784 166.352 192.496V202H161.852V184.396H166.136V187.492C167.048 185.38 168.932 184.228 171.788 184.036L173.156 183.928L173.444 187.708ZM196.549 183.964C198.541 183.964 200.029 184.564 201.013 185.764C201.997 186.94 202.489 188.752 202.489 191.2V202H197.989V191.38C197.989 190.036 197.761 189.064 197.305 188.464C196.849 187.84 196.117 187.528 195.109 187.528C193.909 187.528 192.973 187.936 192.301 188.752C191.629 189.568 191.293 190.708 191.293 192.172V202H186.793V191.38C186.793 190.036 186.565 189.064 186.109 188.464C185.677 187.84 184.945 187.528 183.913 187.528C182.737 187.528 181.813 187.936 181.141 188.752C180.469 189.568 180.133 190.708 180.133 192.172V202H175.633V184.396H180.025V186.88C180.553 185.92 181.285 185.2 182.221 184.72C183.157 184.216 184.225 183.964 185.425 183.964C188.089 183.964 189.853 185.068 190.717 187.276C191.269 186.244 192.061 185.44 193.093 184.864C194.125 184.264 195.277 183.964 196.549 183.964ZM214.623 183.964C217.095 183.964 218.931 184.564 220.131 185.764C221.331 186.964 221.931 188.812 221.931 191.308V202H217.647V199.3C217.239 200.236 216.591 200.968 215.703 201.496C214.839 202.024 213.831 202.288 212.679 202.288C211.503 202.288 210.435 202.048 209.475 201.568C208.515 201.088 207.759 200.428 207.207 199.588C206.655 198.748 206.379 197.812 206.379 196.78C206.379 195.484 206.703 194.464 207.351 193.72C208.023 192.976 209.103 192.436 210.591 192.1C212.079 191.764 214.131 191.596 216.747 191.596H217.647V190.768C217.647 189.568 217.383 188.704 216.855 188.176C216.351 187.648 215.499 187.384 214.299 187.384C213.363 187.384 212.379 187.552 211.347 187.888C210.339 188.2 209.343 188.644 208.359 189.22L207.099 186.124C208.083 185.5 209.271 184.984 210.663 184.576C212.055 184.168 213.375 183.964 214.623 183.964ZM213.579 199.048C214.779 199.048 215.751 198.652 216.495 197.86C217.263 197.044 217.647 196 217.647 194.728V193.972H216.999C215.391 193.972 214.143 194.044 213.255 194.188C212.367 194.332 211.731 194.584 211.347 194.944C210.963 195.304 210.771 195.796 210.771 196.42C210.771 197.188 211.035 197.824 211.563 198.328C212.091 198.808 212.763 199.048 213.579 199.048ZM246.394 183.964C247.906 183.964 249.25 184.348 250.426 185.116C251.626 185.884 252.55 186.976 253.198 188.392C253.87 189.784 254.206 191.392 254.206 193.216C254.206 195.04 253.87 196.636 253.198 198.004C252.55 199.372 251.638 200.428 250.462 201.172C249.286 201.916 247.93 202.288 246.394 202.288C245.146 202.288 244.03 202.024 243.046 201.496C242.062 200.968 241.306 200.236 240.778 199.3V208.48H236.278V184.396H240.706V187.06C241.234 186.076 241.99 185.32 242.974 184.792C243.982 184.24 245.122 183.964 246.394 183.964ZM245.206 198.796C246.622 198.796 247.726 198.316 248.518 197.356C249.31 196.372 249.706 194.992 249.706 193.216C249.706 191.392 249.31 189.976 248.518 188.968C247.726 187.96 246.622 187.456 245.206 187.456C243.766 187.456 242.65 187.948 241.858 188.932C241.09 189.916 240.706 191.32 240.706 193.144C240.706 194.944 241.09 196.336 241.858 197.32C242.65 198.304 243.766 198.796 245.206 198.796ZM265.459 183.964C267.931 183.964 269.767 184.564 270.967 185.764C272.167 186.964 272.767 188.812 272.767 191.308V202H268.483V199.3C268.075 200.236 267.427 200.968 266.539 201.496C265.675 202.024 264.667 202.288 263.515 202.288C262.339 202.288 261.271 202.048 260.311 201.568C259.351 201.088 258.595 200.428 258.043 199.588C257.491 198.748 257.215 197.812 257.215 196.78C257.215 195.484 257.539 194.464 258.187 193.72C258.859 192.976 259.939 192.436 261.427 192.1C262.915 191.764 264.967 191.596 267.583 191.596H268.483V190.768C268.483 189.568 268.219 188.704 267.691 188.176C267.187 187.648 266.335 187.384 265.135 187.384C264.199 187.384 263.215 187.552 262.183 187.888C261.175 188.2 260.179 188.644 259.195 189.22L257.935 186.124C258.919 185.5 260.107 184.984 261.499 184.576C262.891 184.168 264.211 183.964 265.459 183.964ZM264.415 199.048C265.615 199.048 266.587 198.652 267.331 197.86C268.099 197.044 268.483 196 268.483 194.728V193.972H267.835C266.227 193.972 264.979 194.044 264.091 194.188C263.203 194.332 262.567 194.584 262.183 194.944C261.799 195.304 261.607 195.796 261.607 196.42C261.607 197.188 261.871 197.824 262.399 198.328C262.927 198.808 263.599 199.048 264.415 199.048ZM288.932 187.708L286.304 187.96C283.328 188.272 281.84 189.784 281.84 192.496V202H277.34V184.396H281.624V187.492C282.536 185.38 284.42 184.228 287.276 184.036L288.644 183.928L288.932 187.708ZM298.611 183.964C301.083 183.964 302.919 184.564 304.119 185.764C305.319 186.964 305.919 188.812 305.919 191.308V202H301.635V199.3C301.227 200.236 300.579 200.968 299.691 201.496C298.827 202.024 297.819 202.288 296.667 202.288C295.491 202.288 294.423 202.048 293.463 201.568C292.503 201.088 291.747 200.428 291.195 199.588C290.643 198.748 290.367 197.812 290.367 196.78C290.367 195.484 290.691 194.464 291.339 193.72C292.011 192.976 293.091 192.436 294.579 192.1C296.067 191.764 298.119 191.596 300.735 191.596H301.635V190.768C301.635 189.568 301.371 188.704 300.843 188.176C300.339 187.648 299.487 187.384 298.287 187.384C297.351 187.384 296.367 187.552 295.335 187.888C294.327 188.2 293.331 188.644 292.347 189.22L291.087 186.124C292.071 185.5 293.259 184.984 294.651 184.576C296.043 184.168 297.363 183.964 298.611 183.964ZM297.567 199.048C298.767 199.048 299.739 198.652 300.483 197.86C301.251 197.044 301.635 196 301.635 194.728V193.972H300.987C299.379 193.972 298.131 194.044 297.243 194.188C296.355 194.332 295.719 194.584 295.335 194.944C294.951 195.304 294.759 195.796 294.759 196.42C294.759 197.188 295.023 197.824 295.551 198.328C296.079 198.808 296.751 199.048 297.567 199.048Z" fill="#F2F2F2"/>
<path d="M43.34 220.396H47.84V238H43.34V220.396ZM48.056 212.224V216.652H43.088V212.224H48.056ZM62.7046 219.964C64.8166 219.964 66.3886 220.564 67.4206 221.764C68.4526 222.964 68.9686 224.776 68.9686 227.2V238H64.4686V227.452C64.4686 226.084 64.2046 225.088 63.6766 224.464C63.1726 223.84 62.3686 223.528 61.2646 223.528C59.9686 223.528 58.9246 223.936 58.1326 224.752C57.3646 225.568 56.9806 226.66 56.9806 228.028V238H52.4806V220.396H56.8726V223.024C57.4726 222.04 58.2766 221.284 59.2846 220.756C60.2926 220.228 61.4326 219.964 62.7046 219.964ZM79.2632 220.396H83.9072V223.78H79.2632V238H74.7632V223.78H71.3792V220.396H74.7632C74.7632 217.876 75.4112 215.98 76.7072 214.708C78.0272 213.436 80.0672 212.728 82.8272 212.584L84.5912 212.476L84.8792 215.824L83.1872 215.896C81.7712 215.968 80.7632 216.292 80.1632 216.868C79.5632 217.42 79.2632 218.32 79.2632 219.568V220.396ZM86.4272 212.62H90.9272V238H86.4272V212.62ZM111.746 220.396V238H107.354V235.3C106.802 236.26 106.058 237.004 105.122 237.532C104.186 238.036 103.13 238.288 101.954 238.288C97.6342 238.288 95.4742 235.864 95.4742 231.016V220.396H99.9742V231.052C99.9742 232.3 100.226 233.224 100.73 233.824C101.234 234.424 102.026 234.724 103.106 234.724C104.354 234.724 105.35 234.316 106.094 233.5C106.862 232.66 107.246 231.556 107.246 230.188V220.396H111.746ZM131.874 230.008H119.886C120.03 231.64 120.522 232.852 121.362 233.644C122.202 234.436 123.402 234.832 124.962 234.832C126.906 234.832 128.682 234.208 130.29 232.96L131.586 236.056C130.77 236.728 129.738 237.268 128.49 237.676C127.266 238.084 126.03 238.288 124.782 238.288C121.902 238.288 119.622 237.472 117.942 235.84C116.286 234.208 115.458 231.976 115.458 229.144C115.458 227.344 115.818 225.748 116.538 224.356C117.258 222.964 118.266 221.884 119.562 221.116C120.882 220.348 122.37 219.964 124.026 219.964C126.45 219.964 128.358 220.744 129.75 222.304C131.166 223.864 131.874 226.012 131.874 228.748V230.008ZM124.134 223.132C122.934 223.132 121.962 223.516 121.218 224.284C120.498 225.052 120.054 226.156 119.886 227.596H128.022C127.974 226.132 127.614 225.028 126.942 224.284C126.27 223.516 125.334 223.132 124.134 223.132ZM145.779 219.964C147.891 219.964 149.463 220.564 150.495 221.764C151.527 222.964 152.043 224.776 152.043 227.2V238H147.543V227.452C147.543 226.084 147.279 225.088 146.751 224.464C146.247 223.84 145.443 223.528 144.339 223.528C143.043 223.528 141.999 223.936 141.207 224.752C140.439 225.568 140.055 226.66 140.055 228.028V238H135.555V220.396H139.947V223.024C140.547 222.04 141.351 221.284 142.359 220.756C143.367 220.228 144.507 219.964 145.779 219.964ZM164.641 238.288C162.793 238.288 161.185 237.916 159.817 237.172C158.473 236.428 157.441 235.372 156.721 234.004C156.001 232.636 155.641 231.04 155.641 229.216C155.641 227.392 156.013 225.784 156.757 224.392C157.525 222.976 158.605 221.884 159.997 221.116C161.389 220.348 162.997 219.964 164.821 219.964C166.069 219.964 167.281 220.168 168.457 220.576C169.657 220.96 170.617 221.488 171.337 222.16L170.041 225.328C169.297 224.728 168.505 224.272 167.665 223.96C166.849 223.648 166.033 223.492 165.217 223.492C163.657 223.492 162.445 223.984 161.581 224.968C160.717 225.928 160.285 227.32 160.285 229.144C160.285 230.944 160.717 232.336 161.581 233.32C162.445 234.28 163.657 234.76 165.217 234.76C166.033 234.76 166.849 234.604 167.665 234.292C168.505 233.98 169.297 233.524 170.041 232.924L171.337 236.056C170.569 236.752 169.585 237.304 168.385 237.712C167.185 238.096 165.937 238.288 164.641 238.288ZM189.636 230.008H177.648C177.792 231.64 178.284 232.852 179.124 233.644C179.964 234.436 181.164 234.832 182.724 234.832C184.668 234.832 186.444 234.208 188.052 232.96L189.348 236.056C188.532 236.728 187.5 237.268 186.252 237.676C185.028 238.084 183.792 238.288 182.544 238.288C179.664 238.288 177.384 237.472 175.704 235.84C174.048 234.208 173.22 231.976 173.22 229.144C173.22 227.344 173.58 225.748 174.3 224.356C175.02 222.964 176.028 221.884 177.324 221.116C178.644 220.348 180.132 219.964 181.788 219.964C184.212 219.964 186.12 220.744 187.512 222.304C188.928 223.864 189.636 226.012 189.636 228.748V230.008ZM181.896 223.132C180.696 223.132 179.724 223.516 178.98 224.284C178.26 225.052 177.816 226.156 177.648 227.596H185.784C185.736 226.132 185.376 225.028 184.704 224.284C184.032 223.516 183.096 223.132 181.896 223.132ZM204.909 223.708L202.281 223.96C199.305 224.272 197.817 225.784 197.817 228.496V238H193.317V220.396H197.601V223.492C198.513 221.38 200.397 220.228 203.253 220.036L204.621 219.928L204.909 223.708ZM213.402 238.288C211.842 238.288 210.402 238.096 209.082 237.712C207.786 237.328 206.682 236.776 205.77 236.056L207.03 232.924C208.902 234.292 211.05 234.976 213.474 234.976C214.506 234.976 215.286 234.808 215.814 234.472C216.366 234.136 216.642 233.656 216.642 233.032C216.642 232.504 216.45 232.096 216.066 231.808C215.706 231.52 215.046 231.256 214.086 231.016L211.206 230.368C209.574 230.008 208.362 229.42 207.57 228.604C206.778 227.788 206.382 226.732 206.382 225.436C206.382 224.356 206.682 223.408 207.282 222.592C207.906 221.752 208.758 221.104 209.838 220.648C210.942 220.192 212.214 219.964 213.654 219.964C214.902 219.964 216.102 220.156 217.254 220.54C218.43 220.924 219.462 221.464 220.35 222.16L219.09 225.22C217.266 223.9 215.442 223.24 213.618 223.24C212.634 223.24 211.866 223.42 211.314 223.78C210.762 224.14 210.486 224.644 210.486 225.292C210.486 225.772 210.654 226.168 210.99 226.48C211.35 226.792 211.914 227.032 212.682 227.2L215.67 227.884C217.422 228.268 218.706 228.88 219.522 229.72C220.338 230.536 220.746 231.616 220.746 232.96C220.746 234.592 220.086 235.888 218.766 236.848C217.446 237.808 215.658 238.288 213.402 238.288Z" fill="#F11863"/>
<path d="M58.784 266.008H46.796C46.94 267.64 47.432 268.852 48.272 269.644C49.112 270.436 50.312 270.832 51.872 270.832C53.816 270.832 55.592 270.208 57.2 268.96L58.496 272.056C57.68 272.728 56.648 273.268 55.4 273.676C54.176 274.084 52.94 274.288 51.692 274.288C48.812 274.288 46.532 273.472 44.852 271.84C43.196 270.208 42.368 267.976 42.368 265.144C42.368 263.344 42.728 261.748 43.448 260.356C44.168 258.964 45.176 257.884 46.472 257.116C47.792 256.348 49.28 255.964 50.936 255.964C53.36 255.964 55.268 256.744 56.66 258.304C58.076 259.864 58.784 262.012 58.784 264.748V266.008ZM51.044 259.132C49.844 259.132 48.872 259.516 48.128 260.284C47.408 261.052 46.964 262.156 46.796 263.596H54.932C54.884 262.132 54.524 261.028 53.852 260.284C53.18 259.516 52.244 259.132 51.044 259.132ZM72.689 255.964C74.801 255.964 76.373 256.564 77.405 257.764C78.437 258.964 78.953 260.776 78.953 263.2V274H74.453V263.452C74.453 262.084 74.189 261.088 73.661 260.464C73.157 259.84 72.353 259.528 71.249 259.528C69.953 259.528 68.909 259.936 68.117 260.752C67.349 261.568 66.965 262.66 66.965 264.028V274H62.465V256.396H66.857V259.024C67.457 258.04 68.261 257.284 69.269 256.756C70.277 256.228 71.417 255.964 72.689 255.964ZM91.5516 274.288C89.7036 274.288 88.0956 273.916 86.7276 273.172C85.3836 272.428 84.3516 271.372 83.6316 270.004C82.9116 268.636 82.5516 267.04 82.5516 265.216C82.5516 263.392 82.9236 261.784 83.6676 260.392C84.4356 258.976 85.5156 257.884 86.9076 257.116C88.2996 256.348 89.9076 255.964 91.7316 255.964C92.9796 255.964 94.1916 256.168 95.3676 256.576C96.5676 256.96 97.5276 257.488 98.2476 258.16L96.9516 261.328C96.2076 260.728 95.4156 260.272 94.5756 259.96C93.7596 259.648 92.9436 259.492 92.1276 259.492C90.5676 259.492 89.3556 259.984 88.4916 260.968C87.6276 261.928 87.1956 263.32 87.1956 265.144C87.1956 266.944 87.6276 268.336 88.4916 269.32C89.3556 270.28 90.5676 270.76 92.1276 270.76C92.9436 270.76 93.7596 270.604 94.5756 270.292C95.4156 269.98 96.2076 269.524 96.9516 268.924L98.2476 272.056C97.4796 272.752 96.4956 273.304 95.2956 273.712C94.0956 274.096 92.8476 274.288 91.5516 274.288ZM109.13 274.288C107.33 274.288 105.746 273.916 104.378 273.172C103.034 272.428 101.99 271.36 101.246 269.968C100.502 268.576 100.13 266.956 100.13 265.108C100.13 263.26 100.502 261.652 101.246 260.284C101.99 258.892 103.034 257.824 104.378 257.08C105.746 256.336 107.33 255.964 109.13 255.964C110.93 255.964 112.502 256.336 113.846 257.08C115.214 257.824 116.258 258.892 116.978 260.284C117.722 261.652 118.094 263.26 118.094 265.108C118.094 266.956 117.722 268.576 116.978 269.968C116.258 271.36 115.214 272.428 113.846 273.172C112.502 273.916 110.93 274.288 109.13 274.288ZM109.094 270.796C110.558 270.796 111.674 270.316 112.442 269.356C113.21 268.396 113.594 266.98 113.594 265.108C113.594 263.26 113.21 261.856 112.442 260.896C111.674 259.912 110.57 259.42 109.13 259.42C107.69 259.42 106.574 259.912 105.782 260.896C105.014 261.856 104.63 263.26 104.63 265.108C104.63 266.98 105.014 268.396 105.782 269.356C106.55 270.316 107.654 270.796 109.094 270.796ZM132.033 255.964C134.145 255.964 135.717 256.564 136.749 257.764C137.781 258.964 138.297 260.776 138.297 263.2V274H133.797V263.452C133.797 262.084 133.533 261.088 133.005 260.464C132.501 259.84 131.697 259.528 130.593 259.528C129.297 259.528 128.253 259.936 127.461 260.752C126.693 261.568 126.309 262.66 126.309 264.028V274H121.809V256.396H126.201V259.024C126.801 258.04 127.605 257.284 128.613 256.756C129.621 256.228 130.761 255.964 132.033 255.964ZM151.867 270.904C152.395 270.904 152.947 270.868 153.523 270.796L153.307 274.144C152.587 274.216 151.927 274.252 151.327 274.252C148.855 274.252 147.031 273.688 145.855 272.56C144.679 271.408 144.091 269.704 144.091 267.448V259.78H140.707V256.396H144.091V251.14H148.591V256.396H153.235V259.78H148.591V267.376C148.591 269.728 149.683 270.904 151.867 270.904ZM167.748 259.708L165.12 259.96C162.144 260.272 160.656 261.784 160.656 264.496V274H156.156V256.396H160.44V259.492C161.352 257.38 163.236 256.228 166.092 256.036L167.46 255.928L167.748 259.708ZM177.427 255.964C179.899 255.964 181.735 256.564 182.935 257.764C184.135 258.964 184.735 260.812 184.735 263.308V274H180.451V271.3C180.043 272.236 179.395 272.968 178.507 273.496C177.643 274.024 176.635 274.288 175.483 274.288C174.307 274.288 173.239 274.048 172.279 273.568C171.319 273.088 170.563 272.428 170.011 271.588C169.459 270.748 169.183 269.812 169.183 268.78C169.183 267.484 169.507 266.464 170.155 265.72C170.827 264.976 171.907 264.436 173.395 264.1C174.883 263.764 176.935 263.596 179.551 263.596H180.451V262.768C180.451 261.568 180.187 260.704 179.659 260.176C179.155 259.648 178.303 259.384 177.103 259.384C176.167 259.384 175.183 259.552 174.151 259.888C173.143 260.2 172.147 260.644 171.163 261.22L169.903 258.124C170.887 257.5 172.075 256.984 173.467 256.576C174.859 256.168 176.179 255.964 177.427 255.964ZM176.383 271.048C177.583 271.048 178.555 270.652 179.299 269.86C180.067 269.044 180.451 268 180.451 266.728V265.972H179.803C178.195 265.972 176.947 266.044 176.059 266.188C175.171 266.332 174.535 266.584 174.151 266.944C173.767 267.304 173.575 267.796 173.575 268.42C173.575 269.188 173.839 269.824 174.367 270.328C174.895 270.808 175.567 271.048 176.383 271.048ZM200.901 259.708L198.273 259.96C195.297 260.272 193.809 261.784 193.809 264.496V274H189.309V256.396H193.593V259.492C194.505 257.38 196.389 256.228 199.245 256.036L200.613 255.928L200.901 259.708ZM218.182 266.008H206.194C206.338 267.64 206.83 268.852 207.67 269.644C208.51 270.436 209.71 270.832 211.27 270.832C213.214 270.832 214.99 270.208 216.598 268.96L217.894 272.056C217.078 272.728 216.046 273.268 214.798 273.676C213.574 274.084 212.338 274.288 211.09 274.288C208.21 274.288 205.93 273.472 204.25 271.84C202.594 270.208 201.766 267.976 201.766 265.144C201.766 263.344 202.126 261.748 202.846 260.356C203.566 258.964 204.574 257.884 205.87 257.116C207.19 256.348 208.678 255.964 210.334 255.964C212.758 255.964 214.666 256.744 216.058 258.304C217.474 259.864 218.182 262.012 218.182 264.748V266.008ZM210.442 259.132C209.242 259.132 208.27 259.516 207.526 260.284C206.806 261.052 206.362 262.156 206.194 263.596H214.33C214.282 262.132 213.922 261.028 213.25 260.284C212.578 259.516 211.642 259.132 210.442 259.132ZM242.779 255.964C244.771 255.964 246.259 256.564 247.243 257.764C248.227 258.94 248.719 260.752 248.719 263.2V274H244.219V263.38C244.219 262.036 243.991 261.064 243.535 260.464C243.079 259.84 242.347 259.528 241.339 259.528C240.139 259.528 239.203 259.936 238.531 260.752C237.859 261.568 237.523 262.708 237.523 264.172V274H233.023V263.38C233.023 262.036 232.795 261.064 232.339 260.464C231.907 259.84 231.175 259.528 230.143 259.528C228.967 259.528 228.043 259.936 227.371 260.752C226.699 261.568 226.363 262.708 226.363 264.172V274H221.863V256.396H226.255V258.88C226.783 257.92 227.515 257.2 228.451 256.72C229.387 256.216 230.455 255.964 231.655 255.964C234.319 255.964 236.083 257.068 236.947 259.276C237.499 258.244 238.291 257.44 239.323 256.864C240.355 256.264 241.507 255.964 242.779 255.964ZM53.456 291.964C54.968 291.964 56.312 292.348 57.488 293.116C58.688 293.884 59.612 294.976 60.26 296.392C60.932 297.784 61.268 299.392 61.268 301.216C61.268 303.04 60.932 304.636 60.26 306.004C59.612 307.372 58.7 308.428 57.524 309.172C56.348 309.916 54.992 310.288 53.456 310.288C52.208 310.288 51.092 310.024 50.108 309.496C49.124 308.968 48.368 308.236 47.84 307.3V316.48H43.34V292.396H47.768V295.06C48.296 294.076 49.052 293.32 50.036 292.792C51.044 292.24 52.184 291.964 53.456 291.964ZM52.268 306.796C53.684 306.796 54.788 306.316 55.58 305.356C56.372 304.372 56.768 302.992 56.768 301.216C56.768 299.392 56.372 297.976 55.58 296.968C54.788 295.96 53.684 295.456 52.268 295.456C50.828 295.456 49.712 295.948 48.92 296.932C48.152 297.916 47.768 299.32 47.768 301.144C47.768 302.944 48.152 304.336 48.92 305.32C49.712 306.304 50.828 306.796 52.268 306.796ZM72.5211 291.964C74.9931 291.964 76.8291 292.564 78.0291 293.764C79.2291 294.964 79.8291 296.812 79.8291 299.308V310H75.5451V307.3C75.1371 308.236 74.4891 308.968 73.6011 309.496C72.7371 310.024 71.7291 310.288 70.5771 310.288C69.4011 310.288 68.3331 310.048 67.3731 309.568C66.4131 309.088 65.6571 308.428 65.1051 307.588C64.5531 306.748 64.2771 305.812 64.2771 304.78C64.2771 303.484 64.6011 302.464 65.2491 301.72C65.9211 300.976 67.0011 300.436 68.4891 300.1C69.9771 299.764 72.0291 299.596 74.6451 299.596H75.5451V298.768C75.5451 297.568 75.2811 296.704 74.7531 296.176C74.2491 295.648 73.3971 295.384 72.1971 295.384C71.2611 295.384 70.2771 295.552 69.2451 295.888C68.2371 296.2 67.2411 296.644 66.2571 297.22L64.9971 294.124C65.9811 293.5 67.1691 292.984 68.5611 292.576C69.9531 292.168 71.2731 291.964 72.5211 291.964ZM71.4771 307.048C72.6771 307.048 73.6491 306.652 74.3931 305.86C75.1611 305.044 75.5451 304 75.5451 302.728V301.972H74.8971C73.2891 301.972 72.0411 302.044 71.1531 302.188C70.2651 302.332 69.6291 302.584 69.2451 302.944C68.8611 303.304 68.6691 303.796 68.6691 304.42C68.6691 305.188 68.9331 305.824 69.4611 306.328C69.9891 306.808 70.6611 307.048 71.4771 307.048ZM95.9945 295.708L93.3665 295.96C90.3905 296.272 88.9025 297.784 88.9025 300.496V310H84.4025V292.396H88.6865V295.492C89.5985 293.38 91.4825 292.228 94.3385 292.036L95.7065 291.928L95.9945 295.708ZM105.86 310.288C104.012 310.288 102.404 309.916 101.036 309.172C99.6922 308.428 98.6602 307.372 97.9402 306.004C97.2202 304.636 96.8602 303.04 96.8602 301.216C96.8602 299.392 97.2322 297.784 97.9762 296.392C98.7442 294.976 99.8242 293.884 101.216 293.116C102.608 292.348 104.216 291.964 106.04 291.964C107.288 291.964 108.5 292.168 109.676 292.576C110.876 292.96 111.836 293.488 112.556 294.16L111.26 297.328C110.516 296.728 109.724 296.272 108.884 295.96C108.068 295.648 107.252 295.492 106.436 295.492C104.876 295.492 103.664 295.984 102.8 296.968C101.936 297.928 101.504 299.32 101.504 301.144C101.504 302.944 101.936 304.336 102.8 305.32C103.664 306.28 104.876 306.76 106.436 306.76C107.252 306.76 108.068 306.604 108.884 306.292C109.724 305.98 110.516 305.524 111.26 304.924L112.556 308.056C111.788 308.752 110.804 309.304 109.604 309.712C108.404 310.096 107.156 310.288 105.86 310.288ZM130.854 302.008H118.866C119.01 303.64 119.502 304.852 120.342 305.644C121.182 306.436 122.382 306.832 123.942 306.832C125.886 306.832 127.662 306.208 129.27 304.96L130.566 308.056C129.75 308.728 128.718 309.268 127.47 309.676C126.246 310.084 125.01 310.288 123.762 310.288C120.882 310.288 118.602 309.472 116.922 307.84C115.266 306.208 114.438 303.976 114.438 301.144C114.438 299.344 114.798 297.748 115.518 296.356C116.238 294.964 117.246 293.884 118.542 293.116C119.862 292.348 121.35 291.964 123.006 291.964C125.43 291.964 127.338 292.744 128.73 294.304C130.146 295.864 130.854 298.012 130.854 300.748V302.008ZM123.114 295.132C121.914 295.132 120.942 295.516 120.198 296.284C119.478 297.052 119.034 298.156 118.866 299.596H127.002C126.954 298.132 126.594 297.028 125.922 296.284C125.25 295.516 124.314 295.132 123.114 295.132ZM146.127 295.708L143.499 295.96C140.523 296.272 139.035 297.784 139.035 300.496V310H134.535V292.396H138.819V295.492C139.731 293.38 141.615 292.228 144.471 292.036L145.839 291.928L146.127 295.708ZM148.317 292.396H152.817V310H148.317V292.396ZM153.033 284.224V288.652H148.065V284.224H153.033ZM165.017 291.964C167.489 291.964 169.325 292.564 170.525 293.764C171.725 294.964 172.325 296.812 172.325 299.308V310H168.041V307.3C167.633 308.236 166.985 308.968 166.097 309.496C165.233 310.024 164.225 310.288 163.073 310.288C161.897 310.288 160.829 310.048 159.869 309.568C158.909 309.088 158.153 308.428 157.601 307.588C157.049 306.748 156.773 305.812 156.773 304.78C156.773 303.484 157.097 302.464 157.745 301.72C158.417 300.976 159.497 300.436 160.985 300.1C162.473 299.764 164.525 299.596 167.141 299.596H168.041V298.768C168.041 297.568 167.777 296.704 167.249 296.176C166.745 295.648 165.893 295.384 164.693 295.384C163.757 295.384 162.773 295.552 161.741 295.888C160.733 296.2 159.737 296.644 158.753 297.22L157.493 294.124C158.477 293.5 159.665 292.984 161.057 292.576C162.449 292.168 163.769 291.964 165.017 291.964ZM163.973 307.048C165.173 307.048 166.145 306.652 166.889 305.86C167.657 305.044 168.041 304 168.041 302.728V301.972H167.393C165.785 301.972 164.537 302.044 163.649 302.188C162.761 302.332 162.125 302.584 161.741 302.944C161.357 303.304 161.165 303.796 161.165 304.42C161.165 305.188 161.429 305.824 161.957 306.328C162.485 306.808 163.157 307.048 163.973 307.048ZM183.379 310.288C181.819 310.288 180.379 310.096 179.059 309.712C177.763 309.328 176.659 308.776 175.747 308.056L177.007 304.924C178.879 306.292 181.027 306.976 183.451 306.976C184.483 306.976 185.263 306.808 185.791 306.472C186.343 306.136 186.619 305.656 186.619 305.032C186.619 304.504 186.427 304.096 186.043 303.808C185.683 303.52 185.023 303.256 184.063 303.016L181.183 302.368C179.551 302.008 178.339 301.42 177.547 300.604C176.755 299.788 176.359 298.732 176.359 297.436C176.359 296.356 176.659 295.408 177.259 294.592C177.883 293.752 178.735 293.104 179.815 292.648C180.919 292.192 182.191 291.964 183.631 291.964C184.879 291.964 186.079 292.156 187.231 292.54C188.407 292.924 189.439 293.464 190.327 294.16L189.067 297.22C187.243 295.9 185.419 295.24 183.595 295.24C182.611 295.24 181.843 295.42 181.291 295.78C180.739 296.14 180.463 296.644 180.463 297.292C180.463 297.772 180.631 298.168 180.967 298.48C181.327 298.792 181.891 299.032 182.659 299.2L185.647 299.884C187.399 300.268 188.683 300.88 189.499 301.72C190.315 302.536 190.723 303.616 190.723 304.96C190.723 306.592 190.063 307.888 188.743 308.848C187.423 309.808 185.635 310.288 183.379 310.288ZM212.173 310.288C210.325 310.288 208.717 309.916 207.349 309.172C206.005 308.428 204.973 307.372 204.253 306.004C203.533 304.636 203.173 303.04 203.173 301.216C203.173 299.392 203.545 297.784 204.289 296.392C205.057 294.976 206.137 293.884 207.529 293.116C208.921 292.348 210.529 291.964 212.353 291.964C213.601 291.964 214.813 292.168 215.989 292.576C217.189 292.96 218.149 293.488 218.869 294.16L217.573 297.328C216.829 296.728 216.037 296.272 215.197 295.96C214.381 295.648 213.565 295.492 212.749 295.492C211.189 295.492 209.977 295.984 209.113 296.968C208.249 297.928 207.817 299.32 207.817 301.144C207.817 302.944 208.249 304.336 209.113 305.32C209.977 306.28 211.189 306.76 212.749 306.76C213.565 306.76 214.381 306.604 215.197 306.292C216.037 305.98 216.829 305.524 217.573 304.924L218.869 308.056C218.101 308.752 217.117 309.304 215.917 309.712C214.717 310.096 213.469 310.288 212.173 310.288ZM229.751 310.288C227.951 310.288 226.367 309.916 224.999 309.172C223.655 308.428 222.611 307.36 221.867 305.968C221.123 304.576 220.751 302.956 220.751 301.108C220.751 299.26 221.123 297.652 221.867 296.284C222.611 294.892 223.655 293.824 224.999 293.08C226.367 292.336 227.951 291.964 229.751 291.964C231.551 291.964 233.123 292.336 234.467 293.08C235.835 293.824 236.879 294.892 237.599 296.284C238.343 297.652 238.715 299.26 238.715 301.108C238.715 302.956 238.343 304.576 237.599 305.968C236.879 307.36 235.835 308.428 234.467 309.172C233.123 309.916 231.551 310.288 229.751 310.288ZM229.715 306.796C231.179 306.796 232.295 306.316 233.063 305.356C233.831 304.396 234.215 302.98 234.215 301.108C234.215 299.26 233.831 297.856 233.063 296.896C232.295 295.912 231.191 295.42 229.751 295.42C228.311 295.42 227.195 295.912 226.403 296.896C225.635 297.856 225.251 299.26 225.251 301.108C225.251 302.98 225.635 304.396 226.403 305.356C227.171 306.316 228.275 306.796 229.715 306.796ZM263.346 291.964C265.338 291.964 266.826 292.564 267.81 293.764C268.794 294.94 269.286 296.752 269.286 299.2V310H264.786V299.38C264.786 298.036 264.558 297.064 264.102 296.464C263.646 295.84 262.914 295.528 261.906 295.528C260.706 295.528 259.77 295.936 259.098 296.752C258.426 297.568 258.09 298.708 258.09 300.172V310H253.59V299.38C253.59 298.036 253.362 297.064 252.906 296.464C252.474 295.84 251.742 295.528 250.71 295.528C249.534 295.528 248.61 295.936 247.938 296.752C247.266 297.568 246.93 298.708 246.93 300.172V310H242.43V292.396H246.822V294.88C247.35 293.92 248.082 293.2 249.018 292.72C249.954 292.216 251.022 291.964 252.222 291.964C254.886 291.964 256.65 293.068 257.514 295.276C258.066 294.244 258.858 293.44 259.89 292.864C260.922 292.264 262.074 291.964 263.346 291.964ZM289.304 302.008H277.316C277.46 303.64 277.952 304.852 278.792 305.644C279.632 306.436 280.832 306.832 282.392 306.832C284.336 306.832 286.112 306.208 287.72 304.96L289.016 308.056C288.2 308.728 287.168 309.268 285.92 309.676C284.696 310.084 283.46 310.288 282.212 310.288C279.332 310.288 277.052 309.472 275.372 307.84C273.716 306.208 272.888 303.976 272.888 301.144C272.888 299.344 273.248 297.748 273.968 296.356C274.688 294.964 275.696 293.884 276.992 293.116C278.312 292.348 279.8 291.964 281.456 291.964C283.88 291.964 285.788 292.744 287.18 294.304C288.596 295.864 289.304 298.012 289.304 300.748V302.008ZM281.564 295.132C280.364 295.132 279.392 295.516 278.648 296.284C277.928 297.052 277.484 298.156 277.316 299.596H285.452C285.404 298.132 285.044 297.028 284.372 296.284C283.7 295.516 282.764 295.132 281.564 295.132ZM304.577 295.708L301.949 295.96C298.973 296.272 297.485 297.784 297.485 300.496V310H292.985V292.396H297.269V295.492C298.181 293.38 300.065 292.228 302.921 292.036L304.289 291.928L304.577 295.708ZM314.442 310.288C312.594 310.288 310.986 309.916 309.618 309.172C308.274 308.428 307.242 307.372 306.522 306.004C305.802 304.636 305.442 303.04 305.442 301.216C305.442 299.392 305.814 297.784 306.558 296.392C307.326 294.976 308.406 293.884 309.798 293.116C311.19 292.348 312.798 291.964 314.622 291.964C315.87 291.964 317.082 292.168 318.258 292.576C319.458 292.96 320.418 293.488 321.138 294.16L319.842 297.328C319.098 296.728 318.306 296.272 317.466 295.96C316.65 295.648 315.834 295.492 315.018 295.492C313.458 295.492 312.246 295.984 311.382 296.968C310.518 297.928 310.086 299.32 310.086 301.144C310.086 302.944 310.518 304.336 311.382 305.32C312.246 306.28 313.458 306.76 315.018 306.76C315.834 306.76 316.65 306.604 317.466 306.292C318.306 305.98 319.098 305.524 319.842 304.924L321.138 308.056C320.37 308.752 319.386 309.304 318.186 309.712C316.986 310.096 315.738 310.288 314.442 310.288ZM323.992 292.396H328.492V310H323.992V292.396ZM328.708 284.224V288.652H323.74V284.224H328.708ZM340.693 291.964C343.165 291.964 345.001 292.564 346.201 293.764C347.401 294.964 348.001 296.812 348.001 299.308V310H343.717V307.3C343.309 308.236 342.661 308.968 341.773 309.496C340.909 310.024 339.901 310.288 338.749 310.288C337.573 310.288 336.505 310.048 335.545 309.568C334.585 309.088 333.829 308.428 333.277 307.588C332.725 306.748 332.449 305.812 332.449 304.78C332.449 303.484 332.773 302.464 333.421 301.72C334.093 300.976 335.173 300.436 336.661 300.1C338.149 299.764 340.201 299.596 342.817 299.596H343.717V298.768C343.717 297.568 343.453 296.704 342.925 296.176C342.421 295.648 341.569 295.384 340.369 295.384C339.433 295.384 338.449 295.552 337.417 295.888C336.409 296.2 335.413 296.644 334.429 297.22L333.169 294.124C334.153 293.5 335.341 292.984 336.733 292.576C338.125 292.168 339.445 291.964 340.693 291.964ZM339.649 307.048C340.849 307.048 341.821 306.652 342.565 305.86C343.333 305.044 343.717 304 343.717 302.728V301.972H343.069C341.461 301.972 340.213 302.044 339.325 302.188C338.437 302.332 337.801 302.584 337.417 302.944C337.033 303.304 336.841 303.796 336.841 304.42C336.841 305.188 337.105 305.824 337.633 306.328C338.161 306.808 338.833 307.048 339.649 307.048ZM352.574 292.396H357.074V310H352.574V292.396ZM357.29 284.224V288.652H352.322V284.224H357.29ZM368.195 310.288C366.635 310.288 365.195 310.096 363.875 309.712C362.579 309.328 361.475 308.776 360.563 308.056L361.823 304.924C363.695 306.292 365.843 306.976 368.267 306.976C369.299 306.976 370.079 306.808 370.607 306.472C371.159 306.136 371.435 305.656 371.435 305.032C371.435 304.504 371.243 304.096 370.859 303.808C370.499 303.52 369.839 303.256 368.879 303.016L365.999 302.368C364.367 302.008 363.155 301.42 362.363 300.604C361.571 299.788 361.175 298.732 361.175 297.436C361.175 296.356 361.475 295.408 362.075 294.592C362.699 293.752 363.551 293.104 364.631 292.648C365.735 292.192 367.007 291.964 368.447 291.964C369.695 291.964 370.895 292.156 372.047 292.54C373.223 292.924 374.255 293.464 375.143 294.16L373.883 297.22C372.059 295.9 370.235 295.24 368.411 295.24C367.427 295.24 366.659 295.42 366.107 295.78C365.555 296.14 365.279 296.644 365.279 297.292C365.279 297.772 365.447 298.168 365.783 298.48C366.143 298.792 366.707 299.032 367.475 299.2L370.463 299.884C372.215 300.268 373.499 300.88 374.315 301.72C375.131 302.536 375.539 303.616 375.539 304.96C375.539 306.592 374.879 307.888 373.559 308.848C372.239 309.808 370.451 310.288 368.195 310.288ZM383.656 305.032V310H378.616V305.032H383.656Z" fill="#F3F3F3"/>
<path d="M44.934 435.098C44.262 435.098 43.6787 434.953 43.184 434.664C42.6893 434.375 42.3067 433.969 42.036 433.446C41.7747 432.914 41.644 432.293 41.644 431.584C41.644 430.875 41.7793 430.254 42.05 429.722C42.33 429.181 42.7173 428.761 43.212 428.462C43.716 428.163 44.304 428.014 44.976 428.014C45.4333 428.014 45.8813 428.098 46.32 428.266C46.7587 428.425 47.1133 428.639 47.384 428.91L47.006 429.75C46.362 429.227 45.7087 428.966 45.046 428.966C44.346 428.966 43.8 429.195 43.408 429.652C43.016 430.109 42.82 430.753 42.82 431.584C42.82 432.405 43.016 433.04 43.408 433.488C43.8 433.936 44.346 434.16 45.046 434.16C45.7087 434.16 46.362 433.899 47.006 433.376L47.384 434.216C47.0947 434.487 46.7307 434.701 46.292 434.86C45.8533 435.019 45.4007 435.098 44.934 435.098ZM51.5772 435.098C50.9332 435.098 50.3639 434.953 49.8692 434.664C49.3839 434.375 49.0059 433.964 48.7352 433.432C48.4739 432.891 48.3432 432.265 48.3432 431.556C48.3432 430.847 48.4739 430.226 48.7352 429.694C49.0059 429.153 49.3839 428.737 49.8692 428.448C50.3639 428.159 50.9332 428.014 51.5772 428.014C52.2212 428.014 52.7906 428.159 53.2852 428.448C53.7799 428.737 54.1579 429.153 54.4192 429.694C54.6899 430.226 54.8252 430.847 54.8252 431.556C54.8252 432.265 54.6899 432.891 54.4192 433.432C54.1579 433.964 53.7799 434.375 53.2852 434.664C52.7906 434.953 52.2212 435.098 51.5772 435.098ZM51.5772 434.16C52.2492 434.16 52.7626 433.941 53.1172 433.502C53.4812 433.054 53.6632 432.405 53.6632 431.556C53.6632 430.725 53.4812 430.086 53.1172 429.638C52.7532 429.181 52.2399 428.952 51.5772 428.952C50.9146 428.952 50.4012 429.181 50.0372 429.638C49.6732 430.086 49.4912 430.725 49.4912 431.556C49.4912 432.396 49.6686 433.04 50.0232 433.488C50.3872 433.936 50.9052 434.16 51.5772 434.16ZM59.9448 428.014C61.5782 428.014 62.3948 428.915 62.3948 430.716V435H61.2608V430.786C61.2608 430.151 61.1348 429.689 60.8828 429.4C60.6402 429.111 60.2482 428.966 59.7068 428.966C59.0815 428.966 58.5822 429.157 58.2088 429.54C57.8355 429.923 57.6488 430.441 57.6488 431.094V435H56.5148V428.182H57.6348V429.302C57.8588 428.882 58.1715 428.565 58.5728 428.35C58.9742 428.126 59.4315 428.014 59.9448 428.014ZM67.9019 428.014C69.5352 428.014 70.3519 428.915 70.3519 430.716V435H69.2179V430.786C69.2179 430.151 69.0919 429.689 68.8399 429.4C68.5972 429.111 68.2052 428.966 67.6639 428.966C67.0385 428.966 66.5392 429.157 66.1659 429.54C65.7925 429.923 65.6059 430.441 65.6059 431.094V435H64.4719V425.13H65.6059V429.274C65.8299 428.863 66.1379 428.551 66.5299 428.336C66.9312 428.121 67.3885 428.014 67.9019 428.014ZM78.1409 431.766H73.1569C73.1942 432.559 73.4089 433.161 73.8009 433.572C74.1929 433.973 74.7482 434.174 75.4669 434.174C76.2602 434.174 76.9882 433.903 77.6509 433.362L78.0289 434.188C77.7302 434.468 77.3476 434.692 76.8809 434.86C76.4142 435.019 75.9382 435.098 75.4529 435.098C74.3889 435.098 73.5489 434.785 72.9329 434.16C72.3262 433.535 72.0229 432.671 72.0229 431.57C72.0229 430.87 72.1582 430.254 72.4289 429.722C72.6996 429.181 73.0776 428.761 73.5629 428.462C74.0576 428.163 74.6176 428.014 75.2429 428.014C76.1482 428.014 76.8576 428.313 77.3709 428.91C77.8842 429.498 78.1409 430.31 78.1409 431.346V431.766ZM75.2569 428.896C74.6596 428.896 74.1789 429.083 73.8149 429.456C73.4602 429.829 73.2502 430.357 73.1849 431.038H77.1469C77.1282 430.347 76.9556 429.82 76.6289 429.456C76.3022 429.083 75.8449 428.896 75.2569 428.896ZM85.1457 434.216C84.8751 434.468 84.5391 434.673 84.1377 434.832C83.7364 434.991 83.3164 435.079 82.8777 435.098L82.8217 435.602C82.9711 435.583 83.0831 435.574 83.1577 435.574C83.4564 435.574 83.7084 435.653 83.9137 435.812C84.1191 435.98 84.2217 436.223 84.2217 436.54C84.2217 436.876 84.0771 437.151 83.7877 437.366C83.5077 437.59 83.1111 437.702 82.5977 437.702C82.4017 437.702 82.1871 437.679 81.9537 437.632C81.7297 437.585 81.5337 437.52 81.3657 437.436L81.5477 436.834C81.8837 436.965 82.2384 437.03 82.6117 437.03C82.8637 437.03 83.0551 436.988 83.1857 436.904C83.3164 436.82 83.3817 436.699 83.3817 436.54C83.3817 436.419 83.3397 436.325 83.2557 436.26C83.1717 436.195 83.0504 436.162 82.8917 436.162C82.6864 436.162 82.4764 436.204 82.2617 436.288L81.9817 436.064L82.0937 435.056C81.2631 434.925 80.6051 434.552 80.1197 433.936C79.6437 433.32 79.4057 432.536 79.4057 431.584C79.4057 430.875 79.5411 430.254 79.8117 429.722C80.0917 429.181 80.4791 428.761 80.9737 428.462C81.4777 428.163 82.0657 428.014 82.7377 428.014C83.1951 428.014 83.6431 428.098 84.0817 428.266C84.5204 428.425 84.8751 428.639 85.1457 428.91L84.7677 429.75C84.1237 429.227 83.4704 428.966 82.8077 428.966C82.1077 428.966 81.5617 429.195 81.1697 429.652C80.7777 430.109 80.5817 430.753 80.5817 431.584C80.5817 432.405 80.7777 433.04 81.1697 433.488C81.5617 433.936 82.1077 434.16 82.8077 434.16C83.4704 434.16 84.1237 433.899 84.7677 433.376L85.1457 434.216ZM89.2829 428.014C90.1509 428.014 90.7949 428.238 91.2149 428.686C91.6443 429.125 91.8589 429.797 91.8589 430.702V435H90.7529V433.838C90.5756 434.239 90.3049 434.552 89.9409 434.776C89.5769 434.991 89.1569 435.098 88.6809 435.098C88.2423 435.098 87.8363 435.009 87.4629 434.832C87.0989 434.655 86.8096 434.407 86.5949 434.09C86.3803 433.773 86.2729 433.423 86.2729 433.04C86.2729 432.527 86.4036 432.13 86.6649 431.85C86.9263 431.561 87.3556 431.355 87.9529 431.234C88.5503 431.103 89.3809 431.038 90.4449 431.038H90.7529V430.576C90.7529 430.007 90.6363 429.596 90.4029 429.344C90.1696 429.083 89.7916 428.952 89.2689 428.952C88.4849 428.952 87.7056 429.195 86.9309 429.68L86.5529 428.854C86.9076 428.602 87.3323 428.401 87.8269 428.252C88.3309 428.093 88.8163 428.014 89.2829 428.014ZM88.8349 434.202C89.3949 434.202 89.8523 434.015 90.2069 433.642C90.5709 433.259 90.7529 432.769 90.7529 432.172V431.766H90.5009C89.6796 431.766 89.0543 431.803 88.6249 431.878C88.1956 431.943 87.8876 432.06 87.7009 432.228C87.5236 432.387 87.4349 432.625 87.4349 432.942C87.4349 433.306 87.5656 433.609 87.8269 433.852C88.0976 434.085 88.4336 434.202 88.8349 434.202Z" fill="white"/>
<path d="M116.354 431.354C116.549 431.158 116.549 430.842 116.354 430.646L113.172 427.464C112.976 427.269 112.66 427.269 112.464 427.464C112.269 427.66 112.269 427.976 112.464 428.172L115.293 431L112.464 433.828C112.269 434.024 112.269 434.34 112.464 434.536C112.66 434.731 112.976 434.731 113.172 434.536L116.354 431.354ZM99 431.5H116V430.5H99V431.5Z" fill="white"/>
<path d="M49.625 91.0264C49.625 91.9043 49.3843 92.3433 48.9028 92.3433C48.4214 92.3433 47.9258 91.9751 47.416 91.2388C46.9346 90.5024 46.5947 89.667 46.3965 88.7324C46.1982 87.7979 46.0991 87.104 46.0991 86.6509C46.0991 86.1694 46.2266 85.5747 46.4814 84.8667C46.7646 84.1304 47.062 83.479 47.3735 82.9126C47.6851 82.3462 48.1099 81.5815 48.6479 80.6187C49.2144 79.6558 49.625 78.9478 49.8799 78.4946H46.6514C45.8018 78.4946 44.9521 78.353 44.1025 78.0698C43.2529 77.7583 42.8281 77.3193 42.8281 76.7529C42.8281 76.5547 43.0547 76.2856 43.5078 75.9458C43.9893 75.606 44.3149 75.252 44.4849 74.8838C44.6548 74.5156 45.4194 73.9775 46.7788 73.2695C48.1665 72.5332 49.4126 72.165 50.5171 72.165C51.6216 72.165 52.7402 72.1084 53.873 71.9951C54.2695 71.3438 54.8076 70.4092 55.4873 69.1914C56.9883 66.4443 58.2485 64.3911 59.2681 63.0317C57.6255 63.0884 56.2944 63.1167 55.2749 63.1167C54.2837 63.1167 53.3916 62.9751 52.5986 62.6919C51.834 62.3804 51.4517 61.9414 51.4517 61.375C51.4517 61.2051 51.6499 60.9785 52.0464 60.6953C52.4429 60.4121 52.6694 60.1431 52.7261 59.8882C52.9526 59.4067 53.6323 58.897 54.7651 58.3589C55.9263 57.7925 56.9316 57.4951 57.7812 57.4668L63.2612 57.2119C64.479 55.5977 66.0649 53.3037 68.019 50.3301C69.9731 47.3281 71.29 45.3599 71.9697 44.4253C72.6494 43.4907 73.1025 43.0234 73.3291 43.0234C73.584 43.0234 73.9097 43.4624 74.3062 44.3403C74.7026 45.1899 74.9009 45.8979 74.9009 46.4644C74.9009 47.0308 74.6318 47.8379 74.0938 48.8857C73.5557 49.9053 72.0972 52.5957 69.7183 56.957L75.8779 56.7446L83.5244 44.9351C83.8643 44.5952 84.0908 44.4253 84.2041 44.4253C84.5156 44.4253 84.9688 44.9351 85.5635 45.9546C86.1865 46.9458 86.498 47.9795 86.498 49.0557C86.498 50.1318 85.3369 52.6382 83.0146 56.5747H84.2466C85.8608 56.5747 86.8662 56.6313 87.2627 56.7446C87.6592 56.8296 88.0557 57.1128 88.4521 57.5942C88.877 58.0474 89.2168 58.3447 89.4717 58.4863C89.8682 58.8262 90.0664 59.2085 90.0664 59.6333C90.0664 60.0298 89.7266 60.3979 89.0469 60.7378C88.3672 61.0493 87.6309 61.2192 86.8379 61.2476C86.0732 61.2759 83.8218 61.4316 80.0835 61.7148L74.2212 71.4004H77.6196C79.6021 71.4004 80.7632 71.4429 81.103 71.5278C81.4712 71.6128 81.8818 71.9102 82.335 72.4199C82.8164 72.9014 83.2554 73.2695 83.6519 73.5244C84.0483 73.7793 84.2466 74.1475 84.2466 74.6289C84.2466 75.1104 83.8501 75.5352 83.0571 75.9033C82.2925 76.2432 81.3862 76.4697 80.3384 76.583C79.3188 76.668 76.2178 76.8521 71.0352 77.1353C68.4014 82.3745 66.8013 86.3394 66.2349 89.0298V89.5396C66.2349 90.0776 66.0366 90.3467 65.6401 90.3467C65.2437 90.3467 64.748 89.9644 64.1533 89.1997C63.5586 88.4067 63.0063 87.458 62.4966 86.3535C62.0151 85.249 61.7744 84.3286 61.7744 83.5923C61.7744 82.8276 62.4824 80.8452 63.8984 77.645C62.7373 77.7017 60.1743 77.8999 56.2095 78.2397C52.896 83.9604 50.7012 88.2227 49.625 91.0264ZM72.4795 62.0547L66.0649 62.6069C65.8101 63.0034 65.0029 64.3486 63.6436 66.6426C62.2842 68.9082 61.208 70.6357 60.415 71.8252C60.4434 71.8252 60.7124 71.811 61.2222 71.7827C61.7603 71.7544 63.6577 71.6836 66.9146 71.5703C68.7554 68.1436 70.6104 64.9717 72.4795 62.0547Z" fill="#90A4CC" fill-opacity="0.15"/>
<g filter="url(#filter0_d)">
<path d="M69.32 80V77.96H74.504C75.176 77.96 75.76 77.808 76.256 77.504C76.768 77.184 77.16 76.768 77.432 76.256C77.704 75.744 77.84 75.2 77.84 74.624C77.84 74.064 77.704 73.544 77.432 73.064C77.176 72.568 76.8 72.176 76.304 71.888C75.824 71.584 75.256 71.432 74.6 71.432H69.752V63.2H79.04V65.24H71.96V69.44H74.888C75.928 69.44 76.84 69.68 77.624 70.16C78.408 70.64 79.016 71.28 79.448 72.08C79.896 72.864 80.12 73.72 80.12 74.648C80.12 75.592 79.896 76.472 79.448 77.288C79 78.104 78.376 78.76 77.576 79.256C76.776 79.752 75.848 80 74.792 80H69.32Z" fill="url(#paint0_linear)"/>
<path d="M89.2799 67.472C88.0959 67.472 87.0319 67.728 86.0879 68.24C85.1439 68.752 84.3919 69.496 83.8319 70.472C83.2879 71.432 83.0159 72.592 83.0159 73.952V85.28H85.2239V77.816H85.2719C85.5439 78.312 85.8959 78.744 86.3279 79.112C86.7759 79.48 87.2799 79.768 87.8399 79.976C88.4159 80.184 89.0159 80.288 89.6399 80.288C90.7759 80.288 91.7919 80.032 92.6879 79.52C93.5839 79.008 94.2879 78.288 94.7999 77.36C95.3279 76.416 95.5919 75.304 95.5919 74.024C95.5919 73.016 95.4319 72.112 95.1119 71.312C94.8079 70.496 94.3759 69.8 93.8159 69.224C93.2559 68.648 92.5919 68.216 91.8239 67.928C91.0559 67.624 90.2079 67.472 89.2799 67.472ZM89.2799 69.368C90.0319 69.368 90.7119 69.552 91.3199 69.92C91.9439 70.288 92.4399 70.808 92.8079 71.48C93.1759 72.152 93.3599 72.952 93.3599 73.88C93.3599 74.776 93.1759 75.56 92.8079 76.232C92.4559 76.904 91.9759 77.432 91.3679 77.816C90.7599 78.2 90.0719 78.392 89.3039 78.392C88.5519 78.392 87.8639 78.208 87.2399 77.84C86.6319 77.472 86.1439 76.952 85.7759 76.28C85.4239 75.592 85.2479 74.784 85.2479 73.856C85.2479 72.944 85.4239 72.152 85.7759 71.48C86.1439 70.808 86.6319 70.288 87.2399 69.92C87.8639 69.552 88.5439 69.368 89.2799 69.368ZM104.152 80.288C103.048 80.288 102.056 80.064 101.176 79.616C100.312 79.152 99.6321 78.512 99.1361 77.696C98.6561 76.88 98.4161 75.928 98.4161 74.84V67.76H100.648V74.816C100.648 75.552 100.808 76.192 101.128 76.736C101.448 77.264 101.872 77.672 102.4 77.96C102.944 78.248 103.52 78.392 104.128 78.392C104.752 78.392 105.328 78.248 105.856 77.96C106.4 77.672 106.832 77.264 107.152 76.736C107.488 76.192 107.656 75.552 107.656 74.816V67.76H109.888V74.84C109.888 75.928 109.64 76.88 109.144 77.696C108.648 78.512 107.968 79.152 107.104 79.616C106.24 80.064 105.256 80.288 104.152 80.288ZM119.585 80.288C118.401 80.288 117.337 80.032 116.393 79.52C115.449 79.008 114.697 78.272 114.137 77.312C113.593 76.336 113.321 75.168 113.321 73.808V62.48H115.529V69.944H115.577C115.849 69.448 116.201 69.016 116.633 68.648C117.081 68.28 117.585 67.992 118.145 67.784C118.721 67.576 119.321 67.472 119.945 67.472C121.081 67.472 122.097 67.728 122.993 68.24C123.889 68.752 124.593 69.48 125.105 70.424C125.633 71.352 125.897 72.456 125.897 73.736C125.897 74.744 125.737 75.656 125.417 76.472C125.113 77.272 124.681 77.96 124.121 78.536C123.561 79.112 122.897 79.552 122.129 79.856C121.361 80.144 120.513 80.288 119.585 80.288ZM119.585 78.392C120.337 78.392 121.017 78.208 121.625 77.84C122.249 77.472 122.745 76.952 123.113 76.28C123.481 75.608 123.665 74.808 123.665 73.88C123.665 72.984 123.481 72.2 123.113 71.528C122.761 70.856 122.281 70.328 121.673 69.944C121.065 69.56 120.377 69.368 119.609 69.368C118.857 69.368 118.169 69.552 117.545 69.92C116.937 70.288 116.449 70.816 116.081 71.504C115.729 72.176 115.553 72.976 115.553 73.904C115.553 74.816 115.729 75.608 116.081 76.28C116.449 76.952 116.937 77.472 117.545 77.84C118.169 78.208 118.849 78.392 119.585 78.392ZM128.721 80V62.48H130.929V80H128.721ZM134.44 80V67.76H136.672V80H134.44ZM135.568 65.816C135.168 65.816 134.816 65.672 134.512 65.384C134.224 65.08 134.08 64.728 134.08 64.328C134.08 63.928 134.224 63.584 134.512 63.296C134.816 62.992 135.168 62.84 135.568 62.84C135.968 62.84 136.312 62.992 136.6 63.296C136.904 63.584 137.056 63.928 137.056 64.328C137.056 64.728 136.904 65.08 136.6 65.384C136.312 65.672 135.968 65.816 135.568 65.816Z" fill="#E53E3E"/>
<path d="M89.2799 67.472C88.0959 67.472 87.0319 67.728 86.0879 68.24C85.1439 68.752 84.3919 69.496 83.8319 70.472C83.2879 71.432 83.0159 72.592 83.0159 73.952V85.28H85.2239V77.816H85.2719C85.5439 78.312 85.8959 78.744 86.3279 79.112C86.7759 79.48 87.2799 79.768 87.8399 79.976C88.4159 80.184 89.0159 80.288 89.6399 80.288C90.7759 80.288 91.7919 80.032 92.6879 79.52C93.5839 79.008 94.2879 78.288 94.7999 77.36C95.3279 76.416 95.5919 75.304 95.5919 74.024C95.5919 73.016 95.4319 72.112 95.1119 71.312C94.8079 70.496 94.3759 69.8 93.8159 69.224C93.2559 68.648 92.5919 68.216 91.8239 67.928C91.0559 67.624 90.2079 67.472 89.2799 67.472ZM89.2799 69.368C90.0319 69.368 90.7119 69.552 91.3199 69.92C91.9439 70.288 92.4399 70.808 92.8079 71.48C93.1759 72.152 93.3599 72.952 93.3599 73.88C93.3599 74.776 93.1759 75.56 92.8079 76.232C92.4559 76.904 91.9759 77.432 91.3679 77.816C90.7599 78.2 90.0719 78.392 89.3039 78.392C88.5519 78.392 87.8639 78.208 87.2399 77.84C86.6319 77.472 86.1439 76.952 85.7759 76.28C85.4239 75.592 85.2479 74.784 85.2479 73.856C85.2479 72.944 85.4239 72.152 85.7759 71.48C86.1439 70.808 86.6319 70.288 87.2399 69.92C87.8639 69.552 88.5439 69.368 89.2799 69.368ZM104.152 80.288C103.048 80.288 102.056 80.064 101.176 79.616C100.312 79.152 99.6321 78.512 99.1361 77.696C98.6561 76.88 98.4161 75.928 98.4161 74.84V67.76H100.648V74.816C100.648 75.552 100.808 76.192 101.128 76.736C101.448 77.264 101.872 77.672 102.4 77.96C102.944 78.248 103.52 78.392 104.128 78.392C104.752 78.392 105.328 78.248 105.856 77.96C106.4 77.672 106.832 77.264 107.152 76.736C107.488 76.192 107.656 75.552 107.656 74.816V67.76H109.888V74.84C109.888 75.928 109.64 76.88 109.144 77.696C108.648 78.512 107.968 79.152 107.104 79.616C106.24 80.064 105.256 80.288 104.152 80.288ZM119.585 80.288C118.401 80.288 117.337 80.032 116.393 79.52C115.449 79.008 114.697 78.272 114.137 77.312C113.593 76.336 113.321 75.168 113.321 73.808V62.48H115.529V69.944H115.577C115.849 69.448 116.201 69.016 116.633 68.648C117.081 68.28 117.585 67.992 118.145 67.784C118.721 67.576 119.321 67.472 119.945 67.472C121.081 67.472 122.097 67.728 122.993 68.24C123.889 68.752 124.593 69.48 125.105 70.424C125.633 71.352 125.897 72.456 125.897 73.736C125.897 74.744 125.737 75.656 125.417 76.472C125.113 77.272 124.681 77.96 124.121 78.536C123.561 79.112 122.897 79.552 122.129 79.856C121.361 80.144 120.513 80.288 119.585 80.288ZM119.585 78.392C120.337 78.392 121.017 78.208 121.625 77.84C122.249 77.472 122.745 76.952 123.113 76.28C123.481 75.608 123.665 74.808 123.665 73.88C123.665 72.984 123.481 72.2 123.113 71.528C122.761 70.856 122.281 70.328 121.673 69.944C121.065 69.56 120.377 69.368 119.609 69.368C118.857 69.368 118.169 69.552 117.545 69.92C116.937 70.288 116.449 70.816 116.081 71.504C115.729 72.176 115.553 72.976 115.553 73.904C115.553 74.816 115.729 75.608 116.081 76.28C116.449 76.952 116.937 77.472 117.545 77.84C118.169 78.208 118.849 78.392 119.585 78.392ZM128.721 80V62.48H130.929V80H128.721ZM134.44 80V67.76H136.672V80H134.44ZM135.568 65.816C135.168 65.816 134.816 65.672 134.512 65.384C134.224 65.08 134.08 64.728 134.08 64.328C134.08 63.928 134.224 63.584 134.512 63.296C134.816 62.992 135.168 62.84 135.568 62.84C135.968 62.84 136.312 62.992 136.6 63.296C136.904 63.584 137.056 63.928 137.056 64.328C137.056 64.728 136.904 65.08 136.6 65.384C136.312 65.672 135.968 65.816 135.568 65.816Z" fill="url(#paint1_linear)"/>
</g>
<defs>
<filter id="filter0_d" x="64.32" y="61.48" width="77.7355" height="32.8" filterUnits="userSpaceOnUse" color-interpolation-filters="sRGB">
<feFlood flood-opacity="0" result="BackgroundImageFix"/>
<feColorMatrix in="SourceAlpha" type="matrix" values="0 0 0 0 0 0 0 0 0 0 0 0 0 0 0 0 0 0 127 0"/>
<feOffset dy="4"/>
<feGaussianBlur stdDeviation="2.5"/>
<feColorMatrix type="matrix" values="0 0 0 0 0 0 0 0 0 0 0 0 0 0 0 0 0 0 0.25 0"/>
<feBlend mode="normal" in2="BackgroundImageFix" result="effect1_dropShadow"/>
<feBlend mode="normal" in="SourceGraphic" in2="effect1_dropShadow" result="shape"/>
</filter>
<linearGradient id="paint0_linear" x1="209" y1="53" x2="209" y2="153.599" gradientUnits="userSpaceOnUse">
<stop stop-color="white"/>
<stop offset="1" stop-color="white" stop-opacity="0.79"/>
</linearGradient>
<linearGradient id="paint1_linear" x1="209" y1="53" x2="209" y2="153.599" gradientUnits="userSpaceOnUse">
<stop stop-color="#FF0670"/>
<stop offset="1" stop-color="#C84B3F"/>
</linearGradient>
</defs>
</svg>
